<svg width="20" height="20" viewBox="0 0 20 20" fill="none" xmlns="http://www.w3.org/2000/svg">
<path d="M1 4.25C1 2.45507 2.45507 1 4.25 1H6.25C6.66421 1 7 1.33579 7 1.75C7 2.16421 6.66421 2.5 6.25 2.5H4.25C3.2835 2.5 2.5 3.2835 2.5 4.25V6.25C2.5 6.66421 2.16421 7 1.75 7C1.33579 7 1 6.66421 1 6.25V4.25ZM13 1.75C13 1.33579 13.3358 1 13.75 1H15.75C17.5449 1 19 2.45507 19 4.25V6.25C19 6.66421 18.6642 7 18.25 7C17.8358 7 17.5 6.66421 17.5 6.25V4.25C17.5 3.2835 16.7165 2.5 15.75 2.5H13.75C13.3358 2.5 13 2.16421 13 1.75ZM1.75 13C2.16421 13 2.5 13.3358 2.5 13.75V15.75C2.5 16.7165 3.2835 17.5 4.25 17.5H6.25C6.66421 17.5 7 17.8358 7 18.25C7 18.6642 6.66421 19 6.25 19H4.25C2.45507 19 1 17.5449 1 15.75V13.75C1 13.3358 1.33579 13 1.75 13ZM18.25 13C18.6642 13 19 13.3358 19 13.75V15.75C19 17.5449 17.5449 19 15.75 19H13.75C13.3358 19 13 18.6642 13 18.25C13 17.8358 13.3358 17.5 13.75 17.5H15.75C16.7165 17.5 17.5 16.7165 17.5 15.75V13.75C17.5 13.3358 17.8358 13 18.25 13ZM8 5H5V8H8V12H5V15H8V12H12V15H15V12H12V8H15V5H12V8H8V5Z" fill="white"/>
</svg>
