<svg width="21" height="20" viewBox="0 0 21 20" fill="none" xmlns="http://www.w3.org/2000/svg">
<path d="M8.5 0.75C12.5041 0.75 15.75 3.99594 15.75 8C15.75 9.73187 15.1427 11.3219 14.1295 12.5688L19.0303 17.4697C19.3232 17.7626 19.3232 18.2374 19.0303 18.5303C18.7641 18.7966 18.3474 18.8208 18.0538 18.6029L17.9697 18.5303L13.0688 13.6295C11.8219 14.6427 10.2319 15.25 8.5 15.25C4.49594 15.25 1.25 12.0041 1.25 8C1.25 3.99594 4.49594 0.75 8.5 0.75ZM8.5 2.25C5.32436 2.25 2.75 4.82436 2.75 8C2.75 11.1756 5.32436 13.75 8.5 13.75C11.6756 13.75 14.25 11.1756 14.25 8C14.25 4.82436 11.6756 2.25 8.5 2.25Z" fill="#0742AB"/>
</svg>
